<svg xmlns="http://www.w3.org/2000/svg" xmlns:xlink="http://www.w3.org/1999/xlink" version="1.1" x="0px" y="0px" viewBox="0 0 5 6.25" enable-background="new 0 0 5 5" xml:space="preserve"><g><path fill="#000000" d="M4.712,3.449c-0.077-0.07-0.157-0.132-0.235-0.198c-0.08-0.074-0.126-0.19-0.21-0.269   c-0.078-0.078-0.169-0.1-0.245-0.189C3.972,2.73,3.949,2.647,3.892,2.59C3.844,2.544,3.788,2.536,3.733,2.562   C3.636,2.614,3.597,2.573,3.525,2.482C3.394,2.317,3.258,2.144,3.178,1.937C3.167,1.903,3.142,1.888,3.112,1.908   c-0.081,0.05-0.129,0.12-0.158,0.211C2.857,1.908,2.872,1.578,2.644,1.498C2.528,1.461,2.414,1.494,2.32,1.564   C2.172,1.673,2.149,1.896,2.035,2.032C1.973,2.11,1.9,2.11,1.836,2.176C1.758,2.251,1.674,2.325,1.599,2.404   C1.505,2.503,1.458,2.61,1.316,2.603c-0.082,0-0.159-0.025-0.24-0.021C0.921,2.59,0.795,2.821,0.711,2.949   C0.581,3.16,0.484,3.362,0.278,3.49c-0.004,0,0,0.013,0.009,0.009c0.14-0.066,0.252-0.166,0.355-0.293   C0.692,3.144,0.74,3.082,0.795,3.02c0.087-0.104,0.158-0.148,0.284-0.148c0.071,0,0.137,0.012,0.208,0.02   c0.087,0.014,0.16-0.049,0.225-0.103C1.497,2.825,1.479,2.863,1.465,2.896C1.418,3.012,1.436,3.16,1.364,3.263   C1.354,3.28,1.371,3.3,1.383,3.288c0.056-0.07,0.143-0.095,0.204-0.161c0.062-0.07,0.112-0.141,0.159-0.23   c0.083-0.158,0.213-0.327,0.255-0.505c0.013-0.009,0.022-0.017,0.038-0.021C2.074,2.351,2.11,2.33,2.146,2.301   c0.008,0.037,0.055,0.05,0.076,0.008c0.114-0.193,0.194-0.413,0.331-0.591c0.022,0.045,0.039,0.096,0.064,0.145   C2.615,1.954,2.634,2.045,2.634,2.135c0,0.133-0.022,0.257-0.019,0.39c0.01,0.276,0.094,0.499-0.043,0.76   C2.561,3.305,2.586,3.325,2.602,3.31C2.76,3.098,2.89,2.896,2.911,2.618c0.007-0.008,0.011-0.012,0.018-0.02   c0.032-0.037,0.058-0.084,0.08-0.133c0.043-0.091,0.097-0.169,0.15-0.247C3.174,2.26,3.191,2.297,3.206,2.334   c-0.01,0.024-0.015,0.058-0.01,0.087c0.021,0.104,0,0.219-0.005,0.322c-0.004,0.12-0.004,0.223-0.053,0.334   c-0.013,0.025,0.01,0.05,0.032,0.037c0.09-0.049,0.181-0.186,0.231-0.297c0.011,0,0.021-0.005,0.029-0.005   c0.056-0.016,0.114-0.02,0.165-0.053c0.05,0.016,0.098,0.021,0.14,0C3.812,2.722,3.853,2.846,3.896,2.9   c0.032,0.045,0.105,0.082,0.126,0.14C4.04,3.098,4.069,3.136,4.104,3.173c0.174,0.182,0.356,0.252,0.574,0.343   C4.712,3.527,4.737,3.475,4.712,3.449z"/></g><text x="0" y="20" fill="#000000" font-size="5px" font-weight="bold" font-family="'Helvetica Neue', Helvetica, Arial-Unicode, Arial, Sans-serif">Created by Alice Noir</text><text x="0" y="25" fill="#000000" font-size="5px" font-weight="bold" font-family="'Helvetica Neue', Helvetica, Arial-Unicode, Arial, Sans-serif">from the Noun Project</text></svg>