<svg xmlns="http://www.w3.org/2000/svg" xmlns:xlink="http://www.w3.org/1999/xlink" version="1.1" x="0px" y="0px" viewBox="0 0 5 6.25" enable-background="new 0 0 5 5" xml:space="preserve"><g><path fill="#000000" d="M3.995,2.862C3.825,2.668,3.622,2.52,3.429,2.357c-0.262-0.21-0.596,0.174-0.762,0.372   c-0.422,0.513-0.979,0.84-1.604,0.926c-0.053,0.009-0.053,0.1,0.006,0.1C1.618,3.75,2.146,3.614,2.64,3.337   c0.23-0.132,0.398-0.363,0.619-0.516C3.317,2.776,3.507,2.655,3.56,2.655c0.16,0,0.303,0.121,0.418,0.224   C3.989,2.892,4.007,2.874,3.995,2.862z"/><path fill="#000000" d="M2.886,2.598C2.841,2.486,2.751,2.379,2.688,2.279c-0.07-0.115-0.166-0.22-0.27-0.298   C2.315,1.907,2.208,1.866,2.085,1.854c-0.156-0.016-0.289,0.07-0.418,0.165c-0.482,0.36-0.871,0.852-1.455,1.03   c-0.045,0.016-0.037,0.09,0.01,0.086c0.5-0.021,0.992-0.239,1.43-0.491c0.115-0.07,0.23-0.146,0.346-0.22   c0.08-0.049,0.158-0.104,0.252-0.09c0.117,0.02,0.221,0.082,0.32,0.14C2.667,2.527,2.751,2.61,2.849,2.655   C2.882,2.668,2.897,2.622,2.886,2.598z"/><path fill="#000000" d="M1.974,2.229c0.127-0.219,0.338-0.4,0.508-0.573C2.659,1.474,2.86,1.259,3.118,1.247   c0.33-0.021,0.549,0.362,0.748,0.595C3.978,1.974,4.11,2.085,4.245,2.177C4.39,2.275,4.618,2.391,4.792,2.391   c0.029,0,0.037,0.055,0.004,0.059C4.737,2.457,4.685,2.486,4.622,2.494C4.534,2.502,4.456,2.507,4.37,2.498   C4.208,2.486,4.052,2.437,3.903,2.362C3.614,2.222,3.456,1.937,3.214,1.73C3.138,1.668,3.056,1.577,2.956,1.568   c-0.123-0.008-0.26,0.059-0.363,0.121c-0.236,0.144-0.381,0.392-0.59,0.565C1.985,2.271,1.956,2.251,1.974,2.229z"/></g><text x="0" y="20" fill="#000000" font-size="5px" font-weight="bold" font-family="'Helvetica Neue', Helvetica, Arial-Unicode, Arial, Sans-serif">Created by Alice Noir</text><text x="0" y="25" fill="#000000" font-size="5px" font-weight="bold" font-family="'Helvetica Neue', Helvetica, Arial-Unicode, Arial, Sans-serif">from the Noun Project</text></svg>