<svg xmlns="http://www.w3.org/2000/svg" xmlns:xlink="http://www.w3.org/1999/xlink" version="1.1" x="0px" y="0px" viewBox="0 0 100 125" enable-background="new 0 0 100 100" xml:space="preserve"><g><path d="M92.578,43.935c-0.213-0.301-0.533-0.088-0.533-0.088c-1.465,0.994-3.771,2.334-6.426,2.334   c-5.396,0.056-10.908-5.907-14.197-9.385c-2.275-2.406-3.1-3.224-3.793-2.896c-3.408,1.687-4.195,4.405-4.957,7.032   c-0.174,0.607-0.283,1.223-0.416,1.833c-1.533-0.13-3.143-1.048-4.154-2.048c-0.58-0.553-0.986-1.404-1.381-2.051   c-0.754-1.237-1.531-2.516-3.508-2.906c-0.379-0.068-0.695,0.459-1.522,2.002c-0.843,1.573-1.432,2.411-2.133,3.293   c-1.694-3.842-4.228-7.335-8.607-9.962c-1.747-0.997-3.706,1.35-9.113,8.285c-2.117,2.717-4.533,5.812-7.171,8.901   c-0.273-0.373-0.525-0.77-0.729-1.164c-0.371-0.682-0.548-1.42-0.719-2.133c-0.328-1.367-0.667-2.78-2.379-3.728   c-0.347-0.188-0.987,0.338-2.793,1.869c-1.351,1.145-3.032,2.57-4.669,3.623c0,0-0.22,0.137-0.082,0.249   c0.389,0.313,2.783-1.698,3.902-2.632c0.238-0.199,0.458-0.385,0.683-0.575l0.002,0.002c0.123-0.094,0.254-0.146,0.369-0.146   c0.083,0,0.14,0.026,0.16,0.053c0.068,0.089,0.017,0.359-0.024,0.578c-0.052,0.275-0.102,0.537-0.01,0.707   c0.103,0.176,0.214,0.262,0.342,0.262c0.2,0,0.361-0.213,0.548-0.46c0.208-0.274,0.445-0.588,0.73-0.588   c0.076,0,0.153,0.021,0.231,0.062c0.103,0.06,0.189,0.214,0.272,0.364c0.108,0.195,0.211,0.382,0.389,0.412   c0.502,0.054,0.547-0.784,0.567-1.134c0.002-0.034,0.003-0.062,0.005-0.079c0.024-0.247,0.184-0.395,0.426-0.395   c0.212,0,0.48,0.137,0.6,0.424c0.136,0.394,0.239,0.804,0.34,1.224c0.177,0.738,0.178,1.504,0.573,2.228   c0.233,0.449,0.593,0.903,0.964,1.327c-4.06,4.727-8.64,9.413-13.506,12.702c-2.099,1.25-1.679,2.955,2.394-0.08   c3.832-2.855,12.444-11.021,14.819-13.907c0.209-0.256,0.41-0.506,0.617-0.759c1.003-1.149,1.642-1.286,1.855-1.286   c0.454,0,0.497,0.641,0.501,0.768c0.021,0.656-0.224,1.586-0.461,2.484c-0.376,1.43-0.733,2.782-0.28,3.686   c0.314,0.59,0.825,1.375,1.619,1.375c0.995,0,1.67-1.195,2.525-2.709c0.913-1.616,1.947-3.448,3.248-3.448   c0.296,0,0.613,0.096,0.926,0.275c0.481,0.3,0.928,1.178,1.323,1.952c0.543,1.064,1.055,2.07,1.918,2.193   c2.328,0.17,2.39-4.262,2.41-6.368c0.002-0.195,0.003-0.352,0.008-0.451c0.058-1.34,0.681-2.108,1.708-2.108   c1.054,0,2.445,0.858,3.063,2.497c0.614,1.979,1.11,4.037,1.61,6.131c3.394,15.902,11.622,25.852,16.247,25.852   c0.355,0,1.221,0.279,1.221-0.689s-0.553-1.318-1.221-1.318c-4.844,0.111-10.93-9.516-14.035-23.133   c3.721-0.18,7.104-3.772,8.896-6.862c0.838-1.381,1.264-2.851,1.676-4.273c0.059-0.203,0.117-0.406,0.176-0.606l0.135-0.324   c0.166-0.267,0.398-0.415,0.479-0.432c0,0,0.008,0.018,0.006,0.066c-0.057,1-0.059,2.082,0.373,2.535   c0.23,0.227,0.439,0.337,0.641,0.337c0.471,0,0.688-0.539,0.939-1.162c0.285-0.705,0.607-1.501,1.291-1.501   c0.078,0,0.162,0.01,0.242,0.028c0.223,0.06,0.463,0.306,0.693,0.544c0.291,0.299,0.564,0.582,0.883,0.582l0.062-0.004   c0.193-0.03,0.354-0.131,0.465-0.292c0.322-0.466,0.197-1.336,0.033-2.127c-0.014-0.066-0.023-0.118-0.029-0.152   c-0.045-0.269-0.004-0.489,0.121-0.635c0.123-0.145,0.33-0.225,0.586-0.225c0.445,0,0.941,0.237,1.295,0.617l0.004-0.003   c3.408,3.558,8.496,8.429,13.676,8.429c0.035,0,0.072,0,0.107-0.002c2.855,0,5.312-1.26,6.873-2.315   C92.496,44.512,92.791,44.236,92.578,43.935z M21.888,43.229c-0.346,0-0.591,0.226-0.626,0.576   c-0.002,0.02-0.003,0.049-0.006,0.087c-0.036,0.627-0.146,0.946-0.339,0.946h0c-0.076-0.014-0.164-0.172-0.241-0.311   c-0.096-0.174-0.196-0.354-0.351-0.442c-0.11-0.058-0.22-0.088-0.328-0.088c-0.385,0-0.666,0.37-0.891,0.669   c-0.135,0.178-0.287,0.379-0.388,0.379c-0.048,0-0.108-0.057-0.167-0.159c-0.056-0.104-0.009-0.353,0.032-0.571   c0.056-0.297,0.109-0.577-0.013-0.737c-0.058-0.076-0.166-0.119-0.288-0.126c0.007-0.006,0.016-0.013,0.023-0.02   c0.998-0.846,2.129-1.804,2.342-1.822c0.852,0.472,1.322,1.068,1.631,1.729C22.149,43.268,22.011,43.229,21.888,43.229z    M45.988,41.948c-1.247,0-2.613,0.806-2.711,3.069c-0.005,0.107-0.006,0.273-0.009,0.484c-0.047,4.679-0.825,5.377-1.297,5.379   c-0.314-0.045-0.807-1.011-1.133-1.651c-0.477-0.935-0.969-1.9-1.702-2.359c-0.484-0.275-0.969-0.416-1.442-0.416   c-1.886,0-3.074,2.102-4.122,3.957c-0.524,0.928-1.242,2.2-1.651,2.2c-0.047,0-0.305-0.041-0.727-0.832   c-0.277-0.555,0.061-1.837,0.359-2.969c0.255-0.968,0.52-1.969,0.494-2.771c-0.032-1.041-0.637-1.74-1.504-1.74   c-0.005,0-0.01,0-0.015,0c1.013-1.276,1.983-2.517,2.893-3.684c2.645-3.392,5.629-7.221,6.691-7.681   c3.493,2.142,5.668,4.896,7.189,8.005c0.268,0.58,0.509,1.14,0.717,1.65C47.391,42.18,46.69,41.948,45.988,41.948z M52.043,37.953   c0.438-0.812,0.932-1.734,1.096-1.798c0.965,0.19,1.609,0.614,2.119,1.15c-0.26-0.036-0.541,0.05-0.697,0.246   c-0.127,0.156-0.17,0.36-0.123,0.574c0.004,0.019,0.012,0.048,0.02,0.084c0.055,0.207,0.197,0.754,0.062,0.969   c-0.025,0.041-0.059,0.064-0.109,0.074c-0.082,0-0.211-0.122-0.326-0.23c-0.15-0.14-0.305-0.284-0.484-0.322   c-0.645-0.11-0.846,0.485-1.008,0.953c-0.086,0.247-0.176,0.502-0.287,0.502c-0.033,0-0.096-0.02-0.193-0.108   c-0.096-0.092-0.111-0.358-0.125-0.573c-0.014-0.244-0.027-0.454-0.133-0.561c-0.051-0.052-0.129-0.081-0.216-0.081   c-0.019,0-0.046,0.003-0.074,0.009C51.732,38.529,51.896,38.227,52.043,37.953z M61.443,45.019   c-1.717,2.959-5.287,6.405-8.744,6.479c-0.027-0.129-0.059-0.254-0.086-0.385c-0.762-3.191-1.537-6.427-2.799-9.465   c0.559-0.767,1.053-1.581,1.485-2.345l0.005,0.003c0.137-0.249,0.278-0.275,0.333-0.275c0.041,0,0.065,0.014,0.073,0.021   c0.053,0.052,0.064,0.263,0.074,0.432c0.018,0.275,0.033,0.56,0.189,0.708c0.121,0.108,0.229,0.162,0.33,0.162   c0.254,0,0.361-0.309,0.477-0.636c0.135-0.39,0.289-0.832,0.674-0.832c0.035,0,0.072,0.003,0.105,0.009   c0.121,0.026,0.256,0.151,0.385,0.272c0.156,0.146,0.305,0.284,0.465,0.284l0.045-0.004c0.1-0.021,0.182-0.078,0.236-0.165   c0.156-0.254,0.068-0.711-0.039-1.125c-0.008-0.033-0.016-0.059-0.02-0.076c-0.033-0.155-0.004-0.295,0.084-0.405   c0.096-0.118,0.252-0.188,0.42-0.188c0.203,0,0.383,0.109,0.514,0.284c0.262,0.347,0.494,0.72,0.727,1.103   c0.408,0.669,0.83,1.362,1.445,1.948c1.047,1.034,2.721,2.165,4.344,2.332C62.012,43.792,61.809,44.419,61.443,45.019z    M69.648,37.752c-0.141,0.167-0.293,0.469-0.211,0.961c0.006,0.038,0.018,0.096,0.033,0.168c0.082,0.391,0.297,1.431,0.029,1.816   c-0.049,0.071-0.111,0.11-0.197,0.123c-0.148,0-0.385-0.244-0.596-0.459c-0.268-0.278-0.547-0.565-0.883-0.654   c-0.117-0.026-0.232-0.039-0.34-0.039c-0.955,0-1.348,0.971-1.664,1.752c-0.172,0.428-0.367,0.912-0.566,0.912   c-0.049,0-0.164-0.028-0.354-0.217c-0.365-0.383-0.285-1.773-0.26-2.23c0.01-0.152-0.027-0.273-0.109-0.359   c-0.07-0.076-0.166-0.115-0.279-0.115c-0.049,0-0.098,0.008-0.15,0.023c0.814-1.808,1.516-2.912,2.043-3.584   c0.365-0.337,0.783-0.651,1.273-0.937c0.688,0.129,1.346,0.466,1.934,0.894c0.471,0.469,0.99,1.017,1.486,1.542   c0.029,0.03,0.061,0.063,0.09,0.094C70.42,37.336,69.918,37.436,69.648,37.752z"/></g><text x="0" y="115" fill="#000000" font-size="5px" font-weight="bold" font-family="'Helvetica Neue', Helvetica, Arial-Unicode, Arial, Sans-serif">Created by Olivier Guin</text><text x="0" y="120" fill="#000000" font-size="5px" font-weight="bold" font-family="'Helvetica Neue', Helvetica, Arial-Unicode, Arial, Sans-serif">from the Noun Project</text></svg>